# xmcd
#
# Track frame offsets: 
#        150
#        20592
#        31665
#        49547
#        65192
#        81754
#        95775
#        110677
#        129957
#        143652
#        158866
#
# Disc length: 2417 seconds
#
# Revision: 1
# Processed by: cddbd v1.5.2PL0 Copyright (c) Steve Scherf et al.
# Submitted via: ExactAudioCopy v1.0b2
#
DISCID=8f096f0b
DTITLE=Johnny Reid - Christmas
DYEAR=2009
DGENRE=Christmas
TTITLE0=Silent Night
TTITLE1=Jingle Bell Rock
TTITLE2=I'll Be Home for Christmas
TTITLE3=Little Drummer Boy
TTITLE4=Waiting for Christmas to Come
TTITLE5=Santa Claus Is Coming to Town
TTITLE6=Christmas Time Again
TTITLE7=Blue Christmas
TTITLE8=Run Run Rudolph
TTITLE9=Mary's Boy Child
TTITLE10=O Holy Night
EXTD=YEAR: 2009
EXTT0=
EXTT1=
EXTT2=
EXTT3=
EXTT4=
EXTT5=
EXTT6=
EXTT7=
EXTT8=
EXTT9=
EXTT10=
PLAYORDER=
